{"title":"Inception (2010) BluRay 720p x264 Dual Audio [English 5.1 + Hind","uid":12569981,"size":1622750975,"categoryP":"video","categoryS":"movies","magnet":"?xt=urn:btih:9b8b74c65610a9f97cf95f457280dd98d741fe80&amp;dn=Inception+%282010%29+BluRay+720p+x264+Dual+Audio+%5BEnglish+5.1+%2B+Hind&amp;tr=udp%3A%2F%2Ftracker.leechers-paradise.org%3A6969&amp;tr=udp%3A%2F%2Fzer0day.ch%3A1337&amp;tr=udp%3A%2F%2Fopen.demonii.com%3A1337&amp;tr=udp%3A%2F%2Ftracker.coppersurfer.tk%3A6969&amp;tr=udp%3A%2F%2Fexodus.desync.com%3A6969","seeders":120,"leechers":35,"uploader":"makintos13","files":2,"time":1444838350,"description":"screens:\r\n \nhttp://imgmak.com/BQ\r\n \nhttp://imgmak.com/BS\r\n \nhttp://imgmak.com/BZ\r\n \nhttp://imgmak.com/Bc\r\n \nhttp://imgmak.com/Bn\r\n \nhttp://imgmak.com/Br\r\n\r\n:::::::::;\r\n\r\nVideo\r\nID : 1\r\nFormat : AVC\r\nFormat/Info : Advanced Video Codec\r\nFormat profile :   \r\nFormat settings, CABAC : Yes\r\nFormat settings, ReFrames : 8 frames\r\nCodec ID : V_MPEG4/ISO/AVC\r\nDuration : 2h 28mn\r\nBit rate : 999 Kbps\r\nWidth : 1 280 pixels\r\nHeight : 536 pixels\r\nDisplay aspect ratio : 2.40:1\r\nFrame rate mode : Constant\r\nFrame rate : 23.976 fps\r\nColor space : YUV\r\nChroma subsampling : 4:2:0\r\nBit depth : 8 bits\r\nScan type : Progressive\r\nBits/(Pixel*Frame) : 0.061\r\nStream size : 1.00 GiB (67%)\r\nTitle :   \r\n\r\nAudio #1\r\nID : 2\r\nFormat : AC-3\r\nFormat/Info : Audio Coding 3\r\nMode extension : CM (complete main)\r\nFormat settings, Endianness : Big\r\nCodec ID : A_AC3\r\nDuration : 2h 28mn\r\nBit rate mode : Constant\r\nBit rate : 224 Kbps\r\nChannel(s) : 6 channels\r\nChannel positions : Front: L C R, Side: L R, LFE\r\nSampling rate : 48.0 KHz\r\nBit depth : 16 bits\r\nCompression mode : Lossy\r\nStream size : 237 MiB (15%)\r\nTitle :   \r\nLanguage : English\r\nDefault : No\r\nForced : No\r\n\r\nAudio #2\r\nID : 3\r\nFormat : AC-3\r\nFormat/Info : Audio Coding 3\r\nMode extension : CM (complete main)\r\nFormat settings, Endianness : Big\r\nCodec ID : A_AC3\r\nDuration : 2h 28mn\r\nBit rate mode : Constant\r\nBit rate : 224 Kbps\r\nChannel(s) : 6 channels\r\nChannel positions : Front: L C R, Side: L R, LFE\r\nSampling rate : 48.0 KHz\r\nBit depth : 16 bits\r\nCompression mode : Lossy\r\nStream size : 237 MiB (15%)\r\nTitle :   \r\nLanguage : Hindi\r\nDefault : Yes\r\nForced : No","torrent":{"xt":"urn:btih:9b8b74c65610a9f97cf95f457280dd98d741fe80","amp;dn":"Inception+%282010%29+BluRay+720p+x264+Dual+Audio+%5BEnglish+5.1+%2B+Hind","amp;tr":["udp%3A%2F%2Ftracker.leechers-paradise.org%3A6969","udp%3A%2F%2Fzer0day.ch%3A1337","udp%3A%2F%2Fopen.demonii.com%3A1337","udp%3A%2F%2Ftracker.coppersurfer.tk%3A6969","udp%3A%2F%2Fexodus.desync.com%3A6969"],"infoHash":"9b8b74c65610a9f97cf95f457280dd98d741fe80","infoHashBuffer":{"type":"Buffer","data":[155,139,116,198,86,16,169,249,124,249,95,69,114,128,221,152,215,65,254,128]},"announce":[],"urlList":[]}}